<svg id="Capa_1" enable-background="new 0 0 512 512" height="512" viewBox="0 0 512 512" width="512" xmlns="http://www.w3.org/2000/svg"><path d="m511.794 5.768c-.959-4.029-5.005-6.518-9.032-5.56-1.252.298-126.626 29.796-246.762 29.796-120.137 0-245.51-29.498-246.762-29.796-4.033-.968-8.074 1.529-9.032 5.56-.959 4.029 1.53 8.073 5.559 9.032.314.075 8.314 1.959 22.023 4.753l29.004 93.446c1.829 5.892 9.622 7.172 13.239 2.173l57.275-79.161c2.958.379 5.947.751 8.965 1.117l37.889 90.464c2.377 5.674 10.248 6.247 13.387.898l49.131-83.727c6.442.158 12.89.241 19.323.241s12.88-.083 19.323-.241l49.13 83.727c3.139 5.348 11.01 4.776 13.387-.898l11.742-28.034c1.6-3.82-.2-8.215-4.021-9.815-3.818-1.601-8.215.2-9.815 4.02l-5.947 14.199-37.428-63.785c22.649-.997 45.024-2.825 66.28-5.101l-10.54 25.167c-1.6 3.82.2 8.215 4.02 9.815 3.821 1.599 8.215-.2 9.815-4.02l13.784-32.911c3.018-.365 6.008-.738 8.966-1.116l57.275 79.161c3.621 5.004 11.407 3.726 13.239-2.173l29.004-93.446c13.708-2.794 21.708-4.678 22.022-4.752 4.028-.96 6.516-5.004 5.557-9.033zm-445.124 88.458-22.155-71.383c17.595 3.341 40.235 7.277 65.919 10.898zm115.531 13.735-28.852-68.886c21.256 2.276 43.631 4.104 66.281 5.101zm263.128-13.735-43.762-60.486c25.684-3.621 48.324-7.556 65.919-10.898z"/><path d="m490.999 437.001h-75.945c2.528-1.943 4.947-4.064 7.24-6.356 2.929-2.93 2.929-7.678 0-10.607-2.93-2.928-7.678-2.928-10.607 0-10.938 10.939-25.48 16.964-40.946 16.964h-123.181c-31.931 0-57.91-25.978-57.91-57.91 0-24.336 9.476-47.209 26.683-64.406 17.207-17.207 40.081-26.683 64.407-26.683h56.819c5.877 0 11.695.557 17.398 1.662l-12.515 12.516c-17.975 17.976-17.975 47.226.001 65.205l2.678 2.677c8.989 8.988 20.796 13.482 32.602 13.482 11.807 0 23.613-4.494 32.602-13.482l15.098-15.099c2.144 7.808 3.226 15.885 3.226 24.129 0 5.828-.86 11.577-2.558 17.085-1.22 3.959 1 8.156 4.958 9.376.736.228 1.479.335 2.212.335 3.204 0 6.172-2.07 7.164-5.293 2.14-6.941 3.224-14.176 3.224-21.503 0-12.601-2.175-24.875-6.471-36.554 5.069-6.912 7.807-15.246 7.807-24.02 0-6.136-1.339-12.057-3.878-17.427l16.545-16.545c4.467-4.47 11.54-.922 21.15-10.53 11.405-11.407 11.349-30.483-1.321-41.627-10.888-9.574-27.719-9.281-38.315.664-8.454 7.935-6.575 13.651-10.321 17.397l-19.88 19.888c-13.711-5.41-29.791-3.094-41.473 6.954-9.689-2.849-19.736-4.29-29.933-4.29h-56.819c-28.333 0-54.973 11.036-75.012 31.075-20.041 20.03-31.078 46.671-31.078 75.014 0 23.576 11.248 44.574 28.659 57.91h-42.807c.33-1.42.505-2.899.505-4.419v-131.605c0-26.537-15.478-40.473-19.626-47.824-5.711-8.11-8.729-17.653-8.729-27.597v-35.672c2.189-1.94 3.572-4.77 3.572-7.918v-27.024c0-5.844-4.754-10.599-10.598-10.599h-43.372c-5.844 0-10.598 4.755-10.598 10.599v27.024c0 3.264 1.487 6.188 3.818 8.13v35.336c0 10.015-3.058 19.612-8.842 27.757-4.131 7.269-19.76 21.24-19.76 47.913v131.479c0 1.52.175 2.999.505 4.419h-26.376c-4.142 0-7.5 3.357-7.5 7.5v4.054c0 18.442 15.004 33.446 33.446 33.446h38.101v2.5c0 15.163 12.336 27.5 27.5 27.5h286.903c15.163 0 27.5-12.337 27.5-27.5v-2.501h38.101c18.442 0 33.446-15.004 33.446-33.446v-4.054c.001-4.142-3.357-7.499-7.499-7.499zm-51.545-175.947c7.244-7.249 4.671-12.084 9.978-17.063 5.025-4.716 12.997-4.863 18.144-.337 5.97 5.251 6.095 14.281.619 19.755-6.172 6.175-12.181 1.561-21.15 10.53l-14.878 14.878c-10.332-10.325-9.526-9.544-10.245-10.224zm-27.323 28.939 10.379 10.38c4.89 4.89 7.476 11.369 7.476 18.144 0 6.443-2.329 12.503-6.584 17.207-2.581 2.463 8.979-8.937-23.684 23.73-12.127 12.129-31.862 12.13-43.991-.001l-2.678-2.676c-12.128-12.129-12.128-31.863 0-43.991 7.951-7.951 15.026-15.027 22.791-22.792 5.004-5.003 11.574-7.504 18.146-7.504 6.715 0 13.244 2.602 18.145 7.503zm-325.475-130.649h34.568v18.202h-34.568zm-7.795 102.531c7.597-10.696 11.613-23.298 11.613-36.442v-32.887h27.178v33.011c0 13.053 3.964 25.582 11.465 36.233 4.43 7.671 16.891 18.314 16.891 39.188v6.295h-41.488c-4.142 0-7.5 3.357-7.5 7.5s3.358 7.5 7.5 7.5h41.488v77.467h-84.136v-77.467h9.811c4.142 0 7.5-3.357 7.5-7.5s-3.358-7.5-7.5-7.5h-9.811v-6.171c0-20.976 12.485-31.482 16.989-39.227zm-16.989 170.707v-17.842h84.136v17.842c0 2.437-1.949 4.419-4.346 4.419h-75.445c-2.396 0-4.345-1.983-4.345-4.419zm350.079 51.918c0 6.893-5.607 12.5-12.5 12.5h-286.903c-6.893 0-12.5-5.607-12.5-12.5v-2.5h311.903zm53.102-17.5h-418.106c-8.994 0-16.505-6.471-18.123-15h454.351c-1.618 8.53-9.129 15-18.122 15z"/></svg>